<svg preserveAspectRatio="none" overflow="visible" style="display: block;" width="23.3846" height="15.2527" viewBox="0 0 23.3846 15.2527" fill="none" xmlns="http://www.w3.org/2000/svg">
<path id="Vector (Stroke)" fill-rule="evenodd" clip-rule="evenodd" d="M1.01364 1.01187C1.01331 1.01184 1.01297 1.01188 1.01264 1.01198C1.01236 1.01208 1.01209 1.01222 1.01186 1.01241V14.2401C1.01209 14.2403 1.01235 14.2404 1.01264 14.2405C1.01289 14.2406 1.01314 14.2406 1.0134 14.2406C1.01348 14.2406 1.01356 14.2406 1.01364 14.2406C1.02743 14.2395 1.04125 14.2389 1.05508 14.2389H22.2329C22.2466 14.2389 22.2602 14.2395 22.2738 14.2406C22.2984 14.2426 22.3229 14.2348 22.3418 14.2189C22.3573 14.2059 22.368 14.1884 22.3728 14.169V1.0124C22.3725 1.01222 22.3723 1.01208 22.372 1.01198C22.3716 1.01188 22.3713 1.01184 22.371 1.01187C22.3572 1.013 22.3434 1.01357 22.3295 1.01357H1.05508C1.04125 1.01357 1.02743 1.013 1.01364 1.01187ZM1.07228 0.00170835C0.945793 -0.00564183 0.818972 0.0107661 0.6984 0.050159C0.570127 0.0920678 0.451504 0.159149 0.349477 0.247478C0.247451 0.335806 0.164076 0.443603 0.104233 0.564553C0.044389 0.685506 0.00928024 0.817183 0.000962074 0.951873C0.000320833 0.962256 0 0.972656 0 0.983058V14.2694C0 14.2798 0.000320833 14.2902 0.000962074 14.3006C0.00928024 14.4353 0.044389 14.567 0.104233 14.6879C0.164075 14.8089 0.247449 14.9167 0.349477 15.005C0.451507 15.0933 0.570131 15.1604 0.6984 15.2023C0.818966 15.2417 0.945784 15.2581 1.07227 15.2508H22.2156C22.4974 15.2676 22.7752 15.176 22.992 14.9942C23.2147 14.8074 23.355 14.5404 23.3824 14.251C23.3839 14.2351 23.3846 14.2192 23.3846 14.2033V0.983058C23.3846 0.972656 23.3843 0.962256 23.3837 0.951873C23.3753 0.817178 23.3402 0.685502 23.2804 0.564553C23.2205 0.443606 23.1372 0.335809 23.0351 0.247478C22.9331 0.159148 22.8145 0.0920671 22.6862 0.050159C22.5656 0.0107661 22.4388 -0.00564183 22.3123 0.00170835H1.07228Z" fill="#008481"/>
</svg>
