<svg width="24" height="20" viewBox="0 0 24 20" fill="none" xmlns="http://www.w3.org/2000/svg">
<path d="M5.14879 20C3.43253 20 2.13149 19.4167 1.24567 18.25C0.415225 17.0833 0 15.5833 0 13.75C0 12.0833 0.33218 10.4722 0.99654 8.91667C1.6609 7.30556 2.60208 5.75 3.82007 4.25C5.09343 2.75 6.61592 1.33333 8.38754 0L9.21799 1.08333C7.11419 2.91667 5.64706 4.63889 4.81661 6.25C4.04152 7.80555 3.6263 9.58333 3.57093 11.5833H5.31488C6.31142 11.5833 7.14187 11.75 7.80623 12.0833C8.47059 12.4167 8.96886 12.8889 9.30104 13.5C9.63322 14.1111 9.79931 14.8056 9.79931 15.5833C9.79931 16.75 9.38408 17.7778 8.55363 18.6667C7.72318 19.5556 6.58824 20 5.14879 20ZM19.3495 20C17.6332 20 16.3322 19.4167 15.4464 18.25C14.6159 17.0833 14.2007 15.5833 14.2007 13.75C14.2007 12.0833 14.5329 10.4722 15.1972 8.91667C15.917 7.30556 16.8858 5.75 18.1038 4.25C19.3772 2.75 20.872 1.33333 22.5882 0L23.4187 1.08333C21.3702 2.91667 19.9308 4.63889 19.1003 6.25C18.2699 7.80555 17.827 9.58333 17.7716 11.5833H19.5156C20.5121 11.5833 21.3426 11.75 22.0069 12.0833C22.6713 12.4167 23.1696 12.8889 23.5017 13.5C23.8339 14.1111 24 14.8056 24 15.5833C24 16.75 23.5848 17.7778 22.7543 18.6667C21.9239 19.5556 20.7889 20 19.3495 20Z" fill="#393A3D"/>
</svg>
